<svg width="204" height="115" viewBox="0 0 204 115" fill="none" xmlns="http://www.w3.org/2000/svg">
<path d="M71.5629 4.92632V0H111.788V4.92632H94.6167V60.1885H88.734V4.92632H71.5629Z" fill="url(#paint0_linear)"/>
<path d="M113.775 4.92632V0H154V4.92632H136.829V60.1885H130.946V4.92632H113.775Z" fill="url(#paint1_linear)"/>
<path d="M51 73.0737V78H91.2249V73.0737H74.0538V17.8115H68.1711V73.0737H51Z" fill="url(#paint2_linear)"/>
<path d="M93.2122 73.0737V78H133.437V73.0737H116.266V17.8115H110.383V73.0737H93.2122Z" fill="url(#paint3_linear)"/>
<path d="M72.8105 86.4912V85.6436H79.7285V86.4912H76.7754V96H75.7637V86.4912H72.8105ZM79.4209 96C79.4209 96 79.4209 93.596 79.4209 88.7881H80.3232V90.7295C80.5374 90.2555 80.7015 89.9297 80.8154 89.752C81.262 89.0592 81.8408 88.7129 82.5518 88.7129C82.6064 88.7129 82.6885 88.7174 82.7979 88.7266V89.4922C82.488 89.5332 82.2305 89.5924 82.0254 89.6699C81.8203 89.7428 81.6198 89.8613 81.4238 90.0254C81.082 90.3079 80.7152 90.8708 80.3232 91.7139V96H79.4209ZM83.3721 94.2432C83.3721 93.915 83.4131 93.6302 83.4951 93.3887C83.5771 93.1426 83.7048 92.9261 83.8779 92.7393C84.0557 92.5479 84.2562 92.3792 84.4795 92.2334C84.7028 92.0876 84.9808 91.9554 85.3135 91.8369C85.9196 91.6227 86.6602 91.429 87.5352 91.2559C87.5352 90.5358 87.3962 90.055 87.1182 89.8135C86.8721 89.5993 86.5143 89.4922 86.0449 89.4922C85.4707 89.4922 84.9762 89.7109 84.5615 90.1484C84.3838 90.3262 84.2607 90.4857 84.1924 90.627L83.543 90.1963C84.0534 89.2165 84.9215 88.7266 86.1475 88.7266C87.2458 88.7266 87.9476 89.1481 88.2529 89.9912C88.376 90.333 88.4375 90.7477 88.4375 91.2354V94.9883C88.4375 95.1204 88.4626 95.3005 88.5127 95.5283C88.5628 95.7562 88.6084 95.9134 88.6494 96H87.7402C87.6035 95.9316 87.5352 95.5488 87.5352 94.8516C86.8926 95.6764 86.1839 96.0889 85.4092 96.0889C84.5524 96.0889 83.9577 95.7881 83.625 95.1865C83.4564 94.8812 83.3721 94.5667 83.3721 94.2432ZM84.4453 93.457C84.3314 93.6667 84.2744 93.9401 84.2744 94.2773C84.2744 94.6146 84.3929 94.8743 84.6299 95.0566C84.8669 95.2344 85.1289 95.3232 85.416 95.3232C85.7077 95.3232 85.9629 95.2799 86.1816 95.1934C86.4049 95.1068 86.6077 94.9951 86.79 94.8584C87.1227 94.6077 87.3711 94.3844 87.5352 94.1885V92.0215C86.6693 92.2448 86.1566 92.3815 85.9971 92.4316C85.195 92.6914 84.6777 93.0332 84.4453 93.457ZM90.0439 87.8789V86.8535H91.0693V87.8789H90.0439ZM90.1055 96V88.7881H91.0078V96H90.1055ZM92.9014 96V88.7881H93.8037V89.9707C94.2048 89.5742 94.5853 89.2666 94.9453 89.0479C95.3053 88.8245 95.7292 88.7129 96.2168 88.7129C96.7044 88.7129 97.1169 88.8724 97.4541 89.1914C97.7913 89.5104 97.96 89.9889 97.96 90.627V96H97.0576V90.627C97.0576 90.2852 96.9346 90.0094 96.6885 89.7998C96.4469 89.5856 96.1849 89.4785 95.9023 89.4785C95.2279 89.4785 94.5283 89.8727 93.8037 90.6611V96H92.9014ZM102.383 86.4912V85.6436H109.301V86.4912H106.348V96H105.336V86.4912H102.383ZM108.993 96C108.993 96 108.993 93.596 108.993 88.7881H109.896V90.7295C110.11 90.2555 110.274 89.9297 110.388 89.752C110.834 89.0592 111.413 88.7129 112.124 88.7129C112.179 88.7129 112.261 88.7174 112.37 88.7266V89.4922C112.06 89.5332 111.803 89.5924 111.598 89.6699C111.393 89.7428 111.192 89.8613 110.996 90.0254C110.654 90.3079 110.287 90.8708 109.896 91.7139V96H108.993ZM112.944 94.2432C112.944 93.915 112.985 93.6302 113.067 93.3887C113.149 93.1426 113.277 92.9261 113.45 92.7393C113.628 92.5479 113.828 92.3792 114.052 92.2334C114.275 92.0876 114.553 91.9554 114.886 91.8369C115.492 91.6227 116.232 91.429 117.107 91.2559C117.107 90.5358 116.968 90.055 116.69 89.8135C116.444 89.5993 116.087 89.4922 115.617 89.4922C115.043 89.4922 114.549 89.7109 114.134 90.1484C113.956 90.3262 113.833 90.4857 113.765 90.627L113.115 90.1963C113.626 89.2165 114.494 88.7266 115.72 88.7266C116.818 88.7266 117.52 89.1481 117.825 89.9912C117.948 90.333 118.01 90.7477 118.01 91.2354V94.9883C118.01 95.1204 118.035 95.3005 118.085 95.5283C118.135 95.7562 118.181 95.9134 118.222 96H117.312C117.176 95.9316 117.107 95.5488 117.107 94.8516C116.465 95.6764 115.756 96.0889 114.981 96.0889C114.125 96.0889 113.53 95.7881 113.197 95.1865C113.029 94.8812 112.944 94.5667 112.944 94.2432ZM114.018 93.457C113.904 93.6667 113.847 93.9401 113.847 94.2773C113.847 94.6146 113.965 94.8743 114.202 95.0566C114.439 95.2344 114.701 95.3232 114.988 95.3232C115.28 95.3232 115.535 95.2799 115.754 95.1934C115.977 95.1068 116.18 94.9951 116.362 94.8584C116.695 94.6077 116.943 94.3844 117.107 94.1885V92.0215C116.242 92.2448 115.729 92.3815 115.569 92.4316C114.767 92.6914 114.25 93.0332 114.018 93.457ZM119.309 92.4453C119.309 89.957 120.277 88.7129 122.214 88.7129C122.692 88.7129 123.096 88.8268 123.424 89.0547C123.747 89.2826 123.962 89.4876 124.066 89.6699C124.249 89.9798 124.374 90.2373 124.442 90.4424L123.718 90.7705C123.709 90.6794 123.659 90.5449 123.567 90.3672C123.481 90.1895 123.387 90.0436 123.287 89.9297C123.187 89.8158 123.041 89.7132 122.85 89.6221C122.663 89.5264 122.451 89.4785 122.214 89.4785C120.879 89.4785 120.211 90.4469 120.211 92.3838C120.211 93.3226 120.386 94.0449 120.737 94.5508C121.093 95.0566 121.585 95.3096 122.214 95.3096C122.647 95.3096 123.007 95.1432 123.294 94.8105C123.545 94.5234 123.713 94.2682 123.8 94.0449L123.861 93.8945L124.572 94.2363C124.413 94.6784 124.151 95.0794 123.786 95.4395C123.622 95.599 123.399 95.7448 123.116 95.877C122.834 96.0091 122.533 96.0752 122.214 96.0752C121.22 96.0752 120.487 95.7585 120.013 95.125C119.543 94.487 119.309 93.5938 119.309 92.4453ZM126.015 96V85.6436H126.917V92.3564L129.679 88.7881H130.759L128.872 91.2422L131.183 96H130.185L128.257 92.0215L126.917 93.6826V96H126.015Z" fill="white"/>
<defs>
<linearGradient id="paint0_linear" x1="51.5" y1="-23" x2="153.5" y2="101" gradientUnits="userSpaceOnUse">
<stop offset="0.491713" stop-color="#2EC7DC"/>
<stop offset="0.491813" stop-color="#D92EDC"/>
</linearGradient>
<linearGradient id="paint1_linear" x1="51.5" y1="-23" x2="153.5" y2="101" gradientUnits="userSpaceOnUse">
<stop offset="0.491713" stop-color="#2EC7DC"/>
<stop offset="0.491813" stop-color="#D92EDC"/>
</linearGradient>
<linearGradient id="paint2_linear" x1="51.5" y1="-23" x2="153.5" y2="101" gradientUnits="userSpaceOnUse">
<stop offset="0.491713" stop-color="#2EC7DC"/>
<stop offset="0.491813" stop-color="#D92EDC"/>
</linearGradient>
<linearGradient id="paint3_linear" x1="51.5" y1="-23" x2="153.5" y2="101" gradientUnits="userSpaceOnUse">
<stop offset="0.491713" stop-color="#2EC7DC"/>
<stop offset="0.491813" stop-color="#D92EDC"/>
</linearGradient>
</defs>
</svg>
